<svg width="52" height="40" viewBox="0 0 52 40" fill="none" xmlns="http://www.w3.org/2000/svg">
<path d="M23.8992 14.2174C24.5338 13.7292 24.5338 12.9378 23.8992 12.4496C23.2646 11.9615 22.2357 11.9615 21.6011 12.4496L12.9344 19.1163C12.6171 19.3604 12.4585 19.6803 12.4585 20.0002C12.4585 20.1697 12.5023 20.3313 12.5818 20.4786C12.6611 20.6261 12.7786 20.7642 12.9344 20.884L21.6011 27.5507C22.2357 28.0389 23.2646 28.0389 23.8992 27.5507C24.5338 27.0626 24.5338 26.2711 23.8992 25.7829L18.0066 21.2502H39.0002C39.8976 21.2502 40.6252 20.6905 40.6252 20.0002C40.6252 19.3098 39.8976 18.7502 39.0002 18.7502H18.0066L23.8992 14.2174Z" fill="#9E9E9E"/>
<rect x="0.5" y="0.5" width="51" height="39" rx="9.5" stroke="#9E9E9E"/>
</svg>
