<svg width="23" height="24" viewBox="0 0 23 24" fill="none" xmlns="http://www.w3.org/2000/svg">
<path fill-rule="evenodd" clip-rule="evenodd" d="M4.61304 6.10149V5.9513C4.61304 3.23532 6.74091 0.863898 9.78487 0.187508C10.91 -0.0625027 12.09 -0.0625027 13.2151 0.187508C16.2591 0.863898 18.387 3.23532 18.387 5.9513V6.10149H20.5634C21.3917 6.10149 22.0947 6.62644 22.2148 7.33464L22.5318 9.20454C23.1561 12.8861 23.1561 16.6267 22.5318 20.3083C22.2304 22.0862 20.5713 23.4607 18.5029 23.6461L17.5912 23.7278C13.5412 24.0907 9.45875 24.0907 5.40884 23.7278L4.49705 23.6461C2.42873 23.4607 0.769636 22.0862 0.468179 20.3083C-0.15606 16.6267 -0.15606 12.8861 0.468179 9.20453L0.785232 7.33463C0.905312 6.62643 1.60828 6.10149 2.43658 6.10149H4.61304ZM10.3265 2.00765C11.0963 1.83659 11.9037 1.83659 12.6735 2.00765C14.7562 2.47045 16.2121 4.093 16.2121 5.9513V6.10149H6.78787V5.9513C6.78787 4.093 8.24378 2.47045 10.3265 2.00765ZM4.61304 7.98085V10.7999C4.61304 11.3189 5.09989 11.7396 5.70046 11.7396C6.30102 11.7396 6.78787 11.3189 6.78787 10.7999V7.98085H16.2121V10.7999C16.2121 11.3189 16.699 11.7396 17.2996 11.7396C17.9001 11.7396 18.387 11.3189 18.387 10.7999V7.98085H20.1263L20.38 9.47699C20.9736 12.9779 20.9736 16.5349 20.38 20.0359C20.2227 20.9632 19.3574 21.6801 18.2786 21.7768L17.3668 21.8585C13.4661 22.208 9.53393 22.208 5.63317 21.8585L4.72138 21.7768C3.6426 21.6801 2.77727 20.9632 2.62003 20.0359C2.02643 16.5349 2.02643 12.9779 2.62003 9.47699L2.87371 7.98085H4.61304Z" fill="black"/>
</svg>
