<svg width="15" height="20" viewBox="0 0 15 20" fill="none" xmlns="http://www.w3.org/2000/svg">
<path d="M5.56452 0C5.16366 0 4.83871 0.331746 4.83871 0.740974V1.48195H0.725806C0.324955 1.48195 0 1.81369 0 2.22292C0 2.63215 0.324955 2.9639 0.725806 2.9639H14.2742C14.675 2.9639 15 2.63215 15 2.22292C15 1.81369 14.675 1.48195 14.2742 1.48195H10.1613V0.740974C10.1613 0.331746 9.83634 0 9.43548 0H5.56452Z" fill="#555555"/>
<path d="M8.52645 12.5966L9.94871 14.0485C10.2322 14.3379 10.2322 14.8071 9.94871 15.0964C9.66526 15.3858 9.20571 15.3858 8.92226 15.0964L7.50001 13.6445L6.07775 15.0964C5.7943 15.3858 5.33475 15.3858 5.0513 15.0964C4.76786 14.8071 4.76786 14.3379 5.0513 14.0485L6.47356 12.5966L5.05129 11.1446C4.76785 10.8552 4.76785 10.386 5.05129 10.0967C5.33474 9.80731 5.79429 9.80731 6.07774 10.0967L7.50001 11.5487L8.92227 10.0967C9.20572 9.80732 9.66527 9.80732 9.94872 10.0967C10.2322 10.3861 10.2322 10.8552 9.94872 11.1446L8.52645 12.5966Z" fill="#555555"/>
<path fill-rule="evenodd" clip-rule="evenodd" d="M1.68525 5.59898C1.72609 5.22372 2.03678 4.93983 2.40662 4.93983H12.5934C12.9632 4.93983 13.2739 5.22372 13.3147 5.59898L13.5084 7.37864C13.8595 10.6047 13.8595 13.8605 13.5084 17.0865L13.4894 17.2617C13.35 18.5423 12.3779 19.5634 11.128 19.742C8.72106 20.086 6.27893 20.086 3.87201 19.742C2.62214 19.5634 1.65 18.5423 1.51062 17.2617L1.49156 17.0865C1.14045 13.8605 1.14045 10.6047 1.49156 7.37864L1.68525 5.59898ZM3.05624 6.42178L2.93429 7.5423C2.59502 10.6596 2.59502 13.8056 2.93429 16.9229L2.95336 17.0981C3.01946 17.7054 3.48051 18.1896 4.07327 18.2744C6.34667 18.5993 8.65332 18.5993 10.9267 18.2744C11.5195 18.1896 11.9805 17.7054 12.0466 17.0981L12.0657 16.9229C12.405 13.8056 12.405 10.6596 12.0657 7.5423L11.9437 6.42178H3.05624Z" fill="#555555"/>
</svg>
