<svg width="23" height="20" viewBox="0 0 23 20" fill="none" xmlns="http://www.w3.org/2000/svg">
<path fill-rule="evenodd" clip-rule="evenodd" d="M0 6.59282C0 2.868 3.11373 0 6.76857 0C8.65256 0 10.3104 0.927088 11.5 2.12667C12.6896 0.927088 14.3474 0 16.2314 0C19.8863 0 23 2.868 23 6.59282C23 9.14437 21.9632 11.3882 20.5268 13.2849C19.0928 15.1783 17.2171 16.7852 15.4211 18.091C14.7352 18.5897 14.0412 19.0498 13.4061 19.3893C12.8097 19.708 12.124 20 11.5 20C10.8761 20 10.1903 19.708 9.59393 19.3893C8.9588 19.0498 8.26484 18.5897 7.57887 18.091C5.78292 16.7852 3.9072 15.1783 2.47325 13.2849C1.03681 11.3882 0 9.14437 0 6.59282ZM6.76857 2.06897C4.03584 2.06897 1.97143 4.17807 1.97143 6.59282C1.97143 8.52868 2.75446 10.331 4.01658 11.9975C5.28117 13.6673 6.9827 15.1406 8.70155 16.3903C9.35196 16.8632 9.96457 17.2655 10.4886 17.5456C11.0514 17.8464 11.3773 17.931 11.5 17.931C11.6227 17.931 11.9486 17.8464 12.5114 17.5456C13.0354 17.2655 13.648 16.8632 14.2985 16.3903C16.0173 15.1406 17.7188 13.6673 18.9834 11.9975C20.2455 10.331 21.0286 8.52868 21.0286 6.59282C21.0286 4.17807 18.9642 2.06897 16.2314 2.06897C14.662 2.06897 13.1965 3.053 12.2814 4.30196C12.0948 4.55663 11.8061 4.70588 11.5 4.70588C11.1939 4.70588 10.9052 4.55663 10.7186 4.30196C9.80353 3.053 8.33803 2.06897 6.76857 2.06897Z" fill="black"/>
</svg>
