<svg width="9" height="10" viewBox="0 0 9 10" fill="none" xmlns="http://www.w3.org/2000/svg">
<path fill-rule="evenodd" clip-rule="evenodd" d="M5.33948 1.15935C4.87035 0.703926 4.12965 0.703926 3.66052 1.15935L1.16742 3.57963C1.10634 3.63893 1.06525 3.71617 1.04998 3.80042C0.751371 5.4479 0.729329 7.13451 0.984782 8.78941L1.04542 9.18222H2.64937V5.79587C2.64937 5.57005 2.83032 5.38698 3.05353 5.38698H5.94647C6.16968 5.38698 6.35063 5.57005 6.35063 5.79587V9.18222H7.95458L8.01522 8.78941C8.27067 7.13451 8.24863 5.4479 7.95002 3.80042C7.93475 3.71617 7.89366 3.63893 7.83258 3.57963L5.33948 1.15935ZM3.10087 0.569286C3.88275 -0.189762 5.11725 -0.189762 5.89913 0.569286L8.39223 2.98956C8.57576 3.16773 8.69921 3.39981 8.74508 3.65292C9.06007 5.39077 9.08332 7.16991 8.81386 8.91559L8.71645 9.54663C8.67616 9.8076 8.45399 10 8.19291 10H5.94647C5.72326 10 5.54231 9.81693 5.54231 9.59111V6.20476H3.45769V9.59111C3.45769 9.81693 3.27674 10 3.05353 10H0.807087C0.546008 10 0.323835 9.8076 0.283551 9.54663L0.186142 8.91559C-0.0833244 7.16991 -0.0600732 5.39077 0.254919 3.65292C0.300795 3.39981 0.424244 3.16773 0.60777 2.98956L3.10087 0.569286Z" fill="#555555"/>
</svg>
