<svg width="121" height="34" viewBox="0 0 121 34" fill="none" xmlns="http://www.w3.org/2000/svg">
<rect width="121" height="34" fill="#DFDFDF"/>
<g id="1440_&#208;&#179;&#208;&#190;&#208;&#187;&#208;&#190;&#208;&#178;&#208;&#189;&#208;&#176; &#209;&#129;&#209;&#130;&#208;&#190;&#209;&#128;&#209;&#150;&#208;&#189;&#208;&#186;&#208;&#176;" clip-path="url(#clip0_0_1)">
<rect width="1440" height="353" transform="translate(-1203 -79)" fill="white"/>
<g id="Group 149">
</g>
<path id="Rectangle 179" d="M0.5 8.98693C0.5 6.50165 2.51472 4.48693 5 4.48693H50.9894C52.073 4.48693 53.1324 4.16686 54.0347 3.56689L57.5084 1.25719C59.0178 0.253502 60.9822 0.253502 62.4916 1.25718L65.9653 3.56688C66.8676 4.16686 67.927 4.48693 69.0106 4.48693H116C118.485 4.48693 120.5 6.50165 120.5 8.98693V29C120.5 31.4853 118.485 33.5 116 33.5H5C2.51472 33.5 0.5 31.4853 0.5 29V8.98693Z" fill="white" stroke="#FFD3DE"/>
<path id="&#208;&#158;&#209;&#129;&#208;&#190;&#208;&#177;&#208;&#184;&#209;&#129;&#209;&#130;&#208;&#184;&#208;&#185; &#208;&#186;&#208;&#176;&#208;&#177;&#209;&#150;&#208;&#189;&#208;&#181;&#209;&#130;" d="M9.5 24.06C8.9 24.06 8.356 23.94 7.868 23.7C7.38 23.46 6.96 23.136 6.608 22.728C6.256 22.312 5.984 21.848 5.792 21.336C5.6 20.816 5.504 20.284 5.504 19.74C5.504 19.172 5.604 18.632 5.804 18.12C6.004 17.6 6.284 17.14 6.644 16.74C7.012 16.332 7.44 16.012 7.928 15.78C8.416 15.54 8.944 15.42 9.512 15.42C10.112 15.42 10.656 15.544 11.144 15.792C11.632 16.04 12.048 16.372 12.392 16.788C12.744 17.204 13.016 17.668 13.208 18.18C13.4 18.692 13.496 19.216 13.496 19.752C13.496 20.32 13.396 20.864 13.196 21.384C12.996 21.896 12.716 22.356 12.356 22.764C11.996 23.164 11.572 23.48 11.084 23.712C10.596 23.944 10.068 24.06 9.5 24.06ZM6.344 19.74C6.344 20.204 6.42 20.652 6.572 21.084C6.724 21.508 6.94 21.888 7.22 22.224C7.5 22.552 7.832 22.816 8.216 23.016C8.608 23.208 9.036 23.304 9.5 23.304C9.988 23.304 10.424 23.204 10.808 23.004C11.2 22.796 11.532 22.524 11.804 22.188C12.084 21.844 12.296 21.46 12.44 21.036C12.584 20.612 12.656 20.18 12.656 19.74C12.656 19.276 12.58 18.832 12.428 18.408C12.276 17.984 12.056 17.604 11.768 17.268C11.488 16.932 11.156 16.668 10.772 16.476C10.388 16.284 9.964 16.188 9.5 16.188C9.02 16.188 8.584 16.288 8.192 16.488C7.808 16.688 7.476 16.96 7.196 17.304C6.924 17.64 6.712 18.02 6.56 18.444C6.416 18.868 6.344 19.3 6.344 19.74ZM17.6237 24.12C17.1677 24.12 16.7477 24.036 16.3637 23.868C15.9877 23.692 15.6557 23.452 15.3677 23.148C15.0877 22.844 14.8677 22.496 14.7077 22.104C14.5557 21.712 14.4797 21.296 14.4797 20.856C14.4797 20.264 14.6117 19.724 14.8757 19.236C15.1397 18.748 15.5077 18.36 15.9797 18.072C16.4517 17.784 16.9957 17.64 17.6117 17.64C18.1957 17.64 18.7117 17.776 19.1597 18.048C19.6077 18.312 19.9397 18.672 20.1557 19.128L19.3637 19.38C19.1877 19.06 18.9397 18.812 18.6197 18.636C18.3077 18.452 17.9597 18.36 17.5757 18.36C17.1597 18.36 16.7797 18.468 16.4357 18.684C16.0917 18.9 15.8157 19.196 15.6077 19.572C15.4077 19.948 15.3077 20.376 15.3077 20.856C15.3077 21.328 15.4117 21.756 15.6197 22.14C15.8277 22.524 16.1037 22.832 16.4477 23.064C16.7917 23.288 17.1717 23.4 17.5877 23.4C17.8597 23.4 18.1197 23.352 18.3677 23.256C18.6237 23.16 18.8437 23.032 19.0277 22.872C19.2197 22.704 19.3477 22.524 19.4117 22.332L20.2157 22.572C20.1037 22.868 19.9157 23.136 19.6517 23.376C19.3957 23.608 19.0917 23.792 18.7397 23.928C18.3957 24.056 18.0237 24.12 17.6237 24.12ZM24.1031 24.12C23.6551 24.12 23.2391 24.036 22.8551 23.868C22.4791 23.692 22.1511 23.456 21.8711 23.16C21.5991 22.856 21.3871 22.512 21.2351 22.128C21.0831 21.736 21.0071 21.324 21.0071 20.892C21.0071 20.444 21.0831 20.028 21.2351 19.644C21.3871 19.252 21.6031 18.908 21.8831 18.612C22.1631 18.308 22.4911 18.072 22.8671 17.904C23.2511 17.728 23.6671 17.64 24.1151 17.64C24.5631 17.64 24.9751 17.728 25.3511 17.904C25.7271 18.072 26.0551 18.308 26.3351 18.612C26.6151 18.908 26.8311 19.252 26.9831 19.644C27.1351 20.028 27.2111 20.444 27.2111 20.892C27.2111 21.324 27.1351 21.736 26.9831 22.128C26.8311 22.512 26.6151 22.856 26.3351 23.16C26.0631 23.456 25.7351 23.692 25.3511 23.868C24.9751 24.036 24.5591 24.12 24.1031 24.12ZM21.8351 20.904C21.8351 21.368 21.9351 21.792 22.1351 22.176C22.3431 22.552 22.6191 22.852 22.9631 23.076C23.3071 23.292 23.6871 23.4 24.1031 23.4C24.5191 23.4 24.8991 23.288 25.2431 23.064C25.5871 22.84 25.8631 22.536 26.0711 22.152C26.2791 21.76 26.3831 21.336 26.3831 20.88C26.3831 20.416 26.2791 19.992 26.0711 19.608C25.8631 19.224 25.5871 18.92 25.2431 18.696C24.8991 18.472 24.5191 18.36 24.1031 18.36C23.6871 18.36 23.3071 18.476 22.9631 18.708C22.6271 18.94 22.3551 19.248 22.1471 19.632C21.9391 20.008 21.8351 20.432 21.8351 20.904ZM31.4438 24.12C30.4358 24.12 29.6718 23.812 29.1518 23.196C28.6398 22.572 28.3838 21.712 28.3838 20.616C28.3838 19.84 28.4478 19.184 28.5758 18.648C28.7038 18.112 28.8918 17.672 29.1398 17.328C29.3878 16.976 29.6918 16.688 30.0518 16.464C30.4198 16.24 30.8398 16.056 31.3118 15.912L33.9398 15.048L34.0118 15.756L31.4798 16.584C30.9998 16.744 30.5998 16.948 30.2798 17.196C29.9598 17.444 29.7078 17.76 29.5238 18.144C29.3478 18.52 29.2318 19.012 29.1758 19.62C29.3838 19.156 29.7038 18.8 30.1358 18.552C30.5678 18.296 31.0678 18.168 31.6358 18.168C32.2438 18.168 32.7598 18.292 33.1838 18.54C33.6158 18.788 33.9438 19.132 34.1678 19.572C34.3918 20.012 34.5038 20.52 34.5038 21.096C34.5038 21.704 34.3838 22.236 34.1438 22.692C33.9118 23.14 33.5678 23.492 33.1118 23.748C32.6638 23.996 32.1078 24.12 31.4438 24.12ZM31.4438 23.4C32.1558 23.4 32.7038 23.196 33.0878 22.788C33.4798 22.372 33.6758 21.82 33.6758 21.132C33.6758 20.46 33.4838 19.912 33.0998 19.488C32.7238 19.064 32.1718 18.852 31.4438 18.852C31.0278 18.852 30.6518 18.94 30.3158 19.116C29.9798 19.292 29.7118 19.548 29.5118 19.884C29.3198 20.22 29.2238 20.636 29.2238 21.132C29.2238 21.564 29.3078 21.952 29.4758 22.296C29.6518 22.64 29.9038 22.912 30.2318 23.112C30.5598 23.304 30.9638 23.4 31.4438 23.4ZM35.8646 24V17.76H36.6806V22.896L40.4846 17.748H41.2166V24H40.4006V18.948L36.6566 24H35.8646ZM45.7136 24.12C45.2576 24.12 44.8376 24.036 44.4536 23.868C44.0776 23.692 43.7456 23.452 43.4576 23.148C43.1776 22.844 42.9576 22.496 42.7976 22.104C42.6456 21.712 42.5696 21.296 42.5696 20.856C42.5696 20.264 42.7016 19.724 42.9656 19.236C43.2296 18.748 43.5976 18.36 44.0696 18.072C44.5416 17.784 45.0856 17.64 45.7016 17.64C46.2856 17.64 46.8016 17.776 47.2496 18.048C47.6976 18.312 48.0296 18.672 48.2456 19.128L47.4536 19.38C47.2776 19.06 47.0296 18.812 46.7096 18.636C46.3976 18.452 46.0496 18.36 45.6656 18.36C45.2496 18.36 44.8696 18.468 44.5256 18.684C44.1816 18.9 43.9056 19.196 43.6976 19.572C43.4976 19.948 43.3976 20.376 43.3976 20.856C43.3976 21.328 43.5016 21.756 43.7096 22.14C43.9176 22.524 44.1936 22.832 44.5376 23.064C44.8816 23.288 45.2616 23.4 45.6776 23.4C45.9496 23.4 46.2096 23.352 46.4576 23.256C46.7136 23.16 46.9336 23.032 47.1176 22.872C47.3096 22.704 47.4376 22.524 47.5016 22.332L48.3056 22.572C48.1936 22.868 48.0056 23.136 47.7416 23.376C47.4856 23.608 47.1816 23.792 46.8296 23.928C46.4856 24.056 46.1136 24.12 45.7136 24.12ZM51.1475 24V18.48H48.9155V17.748H54.1955V18.48H51.9635V24H51.1475ZM55.2943 24V17.76H56.1103V22.896L59.9143 17.748H60.6463V24H59.8303V18.948L56.0863 24H55.2943ZM62.4193 24V17.76H63.2353V22.896L67.0393 17.748H67.7713V24H66.9553V18.948L63.2113 24H62.4193ZM65.1073 16.956C64.5633 16.956 64.1433 16.828 63.8473 16.572C63.5513 16.316 63.4033 15.992 63.4033 15.6H64.0033C64.0033 15.84 64.0913 16.04 64.2673 16.2C64.4513 16.36 64.7313 16.44 65.1073 16.44C65.4753 16.44 65.7433 16.364 65.9113 16.212C66.0873 16.06 66.1873 15.856 66.2113 15.6H66.7993C66.7993 15.992 66.6513 16.316 66.3553 16.572C66.0593 16.828 65.6433 16.956 65.1073 16.956ZM72.6028 24V17.748H73.4188V20.424H74.3548L76.4548 17.748H77.3908L75.0028 20.784L77.6908 24H76.7308L74.3548 21.18H73.4188V24H72.6028ZM78.3218 22.2C78.3218 21.808 78.4338 21.472 78.6578 21.192C78.8818 20.904 79.1898 20.684 79.5818 20.532C79.9818 20.372 80.4418 20.292 80.9618 20.292C81.2658 20.292 81.5818 20.316 81.9098 20.364C82.2378 20.412 82.5298 20.484 82.7858 20.58V20.052C82.7858 19.524 82.6298 19.104 82.3178 18.792C82.0058 18.48 81.5738 18.324 81.0218 18.324C80.6858 18.324 80.3538 18.388 80.0258 18.516C79.7058 18.636 79.3698 18.816 79.0178 19.056L78.7058 18.48C79.1138 18.2 79.5138 17.992 79.9058 17.856C80.2978 17.712 80.6978 17.64 81.1058 17.64C81.8738 17.64 82.4818 17.86 82.9298 18.3C83.3778 18.74 83.6018 19.348 83.6018 20.124V23.016C83.6018 23.128 83.6258 23.212 83.6738 23.268C83.7218 23.316 83.7978 23.344 83.9018 23.352V24C83.8138 24.008 83.7378 24.016 83.6738 24.024C83.6098 24.032 83.5618 24.032 83.5298 24.024C83.3298 24.016 83.1778 23.952 83.0738 23.832C82.9698 23.712 82.9138 23.584 82.9058 23.448L82.8938 22.992C82.6138 23.352 82.2498 23.632 81.8018 23.832C81.3538 24.024 80.8978 24.12 80.4338 24.12C80.0338 24.12 79.6698 24.036 79.3418 23.868C79.0218 23.692 78.7698 23.46 78.5858 23.172C78.4098 22.876 78.3218 22.552 78.3218 22.2ZM82.5098 22.68C82.5978 22.568 82.6658 22.46 82.7138 22.356C82.7618 22.252 82.7858 22.16 82.7858 22.08V21.168C82.5138 21.064 82.2298 20.984 81.9338 20.928C81.6458 20.872 81.3538 20.844 81.0578 20.844C80.4738 20.844 80.0018 20.96 79.6418 21.192C79.2818 21.424 79.1018 21.74 79.1018 22.14C79.1018 22.372 79.1618 22.592 79.2818 22.8C79.4018 23 79.5778 23.168 79.8098 23.304C80.0418 23.432 80.3138 23.496 80.6258 23.496C81.0178 23.496 81.3818 23.42 81.7178 23.268C82.0618 23.116 82.3258 22.92 82.5098 22.68ZM88.2328 24.12C87.2248 24.12 86.4608 23.812 85.9408 23.196C85.4288 22.572 85.1728 21.712 85.1728 20.616C85.1728 19.84 85.2368 19.184 85.3648 18.648C85.4928 18.112 85.6808 17.672 85.9288 17.328C86.1768 16.976 86.4808 16.688 86.8408 16.464C87.2088 16.24 87.6288 16.056 88.1008 15.912L90.7288 15.048L90.8008 15.756L88.2688 16.584C87.7888 16.744 87.3888 16.948 87.0688 17.196C86.7488 17.444 86.4968 17.76 86.3128 18.144C86.1368 18.52 86.0208 19.012 85.9648 19.62C86.1728 19.156 86.4928 18.8 86.9248 18.552C87.3568 18.296 87.8568 18.168 88.4248 18.168C89.0328 18.168 89.5488 18.292 89.9728 18.54C90.4048 18.788 90.7328 19.132 90.9568 19.572C91.1808 20.012 91.2928 20.52 91.2928 21.096C91.2928 21.704 91.1728 22.236 90.9328 22.692C90.7008 23.14 90.3568 23.492 89.9008 23.748C89.4528 23.996 88.8968 24.12 88.2328 24.12ZM88.2328 23.4C88.9448 23.4 89.4928 23.196 89.8768 22.788C90.2688 22.372 90.4648 21.82 90.4648 21.132C90.4648 20.46 90.2728 19.912 89.8888 19.488C89.5128 19.064 88.9608 18.852 88.2328 18.852C87.8168 18.852 87.4408 18.94 87.1048 19.116C86.7688 19.292 86.5008 19.548 86.3008 19.884C86.1088 20.22 86.0128 20.636 86.0128 21.132C86.0128 21.564 86.0968 21.952 86.2648 22.296C86.4408 22.64 86.6928 22.912 87.0208 23.112C87.3488 23.304 87.7528 23.4 88.2328 23.4ZM92.6656 24V17.748H93.4816V24H92.6656ZM92.6656 16.44V15.24H93.4816V16.44H92.6656ZM95.2669 24V17.748H96.0829V20.436H99.6589V17.748H100.475V24H99.6589V21.168H96.0829V24H95.2669ZM104.975 24.12C104.527 24.12 104.111 24.036 103.727 23.868C103.343 23.692 103.011 23.456 102.731 23.16C102.451 22.856 102.231 22.508 102.071 22.116C101.919 21.724 101.843 21.304 101.843 20.856C101.843 20.272 101.975 19.736 102.239 19.248C102.511 18.76 102.883 18.372 103.355 18.084C103.827 17.788 104.363 17.64 104.963 17.64C105.579 17.64 106.115 17.788 106.571 18.084C107.035 18.38 107.399 18.772 107.663 19.26C107.927 19.74 108.059 20.268 108.059 20.844C108.059 20.908 108.059 20.972 108.059 21.036C108.059 21.092 108.055 21.136 108.047 21.168H102.695C102.735 21.616 102.859 22.016 103.067 22.368C103.283 22.712 103.559 22.988 103.895 23.196C104.239 23.396 104.611 23.496 105.011 23.496C105.419 23.496 105.803 23.392 106.163 23.184C106.531 22.976 106.787 22.704 106.931 22.368L107.639 22.56C107.511 22.856 107.315 23.124 107.051 23.364C106.787 23.604 106.475 23.792 106.115 23.928C105.763 24.056 105.383 24.12 104.975 24.12ZM102.671 20.58H107.291C107.259 20.124 107.135 19.724 106.919 19.38C106.711 19.036 106.435 18.768 106.091 18.576C105.755 18.376 105.383 18.276 104.975 18.276C104.567 18.276 104.195 18.376 103.859 18.576C103.523 18.768 103.247 19.04 103.031 19.392C102.823 19.736 102.703 20.132 102.671 20.58ZM110.878 24V18.48H108.646V17.748H113.926V18.48H111.694V24H110.878Z" fill="black"/>
</g>
<defs>
<clipPath id="clip0_0_1">
<rect width="1440" height="353" fill="white" transform="translate(-1203 -79)"/>
</clipPath>
</defs>
</svg>
