<svg width="25" height="21" viewBox="0 0 88 88" fill="none" xmlns="http://www.w3.org/2000/svg">
<path d="M30.7998 19.25C20.6034 19.25 11.9165 26.8741 11.9165 36.7759C11.9165 43.6067 15.1151 49.3577 19.3543 54.1216C23.5789 58.8691 29.0294 62.854 33.9567 66.1893L42.4583 71.944C43.3894 72.5742 44.6103 72.5742 45.5413 71.944L54.0429 66.1893C58.9703 62.854 64.4207 58.8691 68.6454 54.1216C72.8846 49.3577 76.0832 43.6067 76.0832 36.7759C76.0832 26.8741 67.3963 19.25 57.1998 19.25C51.9438 19.25 47.3188 21.7145 43.9998 24.9034C40.6809 21.7145 36.0559 19.25 30.7998 19.25Z" fill="#FFD3DE"/>
</svg>
