<svg width="25" height="21" viewBox="0 0 25 21" fill="none" xmlns="http://www.w3.org/2000/svg">
<path id="Icon" fill-rule="evenodd" clip-rule="evenodd" d="M0 6.92246C0 3.0114 3.38449 0 7.35714 0C9.40496 0 11.2069 0.973442 12.5 2.233C13.7931 0.973442 15.595 0 17.6429 0C21.6155 0 25 3.0114 25 6.92246C25 9.60159 23.873 11.9576 22.3117 13.9491C20.753 15.9372 18.7142 17.6245 16.7621 18.9955C16.0165 19.5192 15.2622 20.0023 14.5718 20.3587C13.9236 20.6934 13.1782 21 12.5 21C11.8218 21 11.0764 20.6934 10.4282 20.3587C9.73783 20.0023 8.98352 19.5192 8.2379 18.9955C6.28579 17.6245 4.24696 15.9372 2.68832 13.9491C1.12697 11.9576 0 9.60159 0 6.92246ZM7.35714 2.17241C4.38679 2.17241 2.14286 4.38697 2.14286 6.92246C2.14286 8.95511 2.99398 10.8476 4.36584 12.5974C5.7404 14.3507 7.58989 15.8976 9.4582 17.2098C10.1652 17.7063 10.8311 18.1288 11.4006 18.4229C12.0124 18.7387 12.3667 18.8276 12.5 18.8276C12.6333 18.8276 12.9876 18.7387 13.5994 18.4229C14.1689 18.1288 14.8348 17.7063 15.5418 17.2098C17.4101 15.8976 19.2596 14.3507 20.6342 12.5974C22.006 10.8476 22.8571 8.95511 22.8571 6.92246C22.8571 4.38697 20.6132 2.17241 17.6429 2.17241C15.9369 2.17241 14.344 3.20565 13.3494 4.51706C13.1466 4.78447 12.8327 4.94118 12.5 4.94118C12.1673 4.94118 11.8534 4.78447 11.6506 4.51706C10.656 3.20565 9.06307 2.17241 7.35714 2.17241Z" fill="#FFD3DE"/>
</svg>
