<svg width="29" height="22" viewBox="0 0 29 22" fill="none" xmlns="http://www.w3.org/2000/svg">
<path d="M15.6718 14.1804C15.3179 14.4489 15.3179 14.8842 15.6718 15.1526C16.0258 15.4211 16.5996 15.4211 16.9535 15.1526L21.7868 11.486C21.9638 11.3517 22.0522 11.1758 22.0522 10.9998C22.0522 10.9066 22.0278 10.8177 21.9835 10.7367C21.9393 10.6556 21.8737 10.5796 21.7868 10.5137L16.9535 6.84703C16.5996 6.57855 16.0258 6.57855 15.6718 6.84703C15.3179 7.11552 15.3179 7.55082 15.6718 7.81931L18.9581 10.3123H7.25016C6.74965 10.3123 6.34391 10.6201 6.34391 10.9998C6.34391 11.3795 6.74965 11.6873 7.25016 11.6873H18.9581L15.6718 14.1804Z" fill="#9E9E9E"/>
<rect x="28.5" y="21.5" width="28" height="21" rx="9.5" transform="rotate(180 28.5 21.5)" stroke="#9E9E9E"/>
</svg>
