<svg width="29" height="22" viewBox="0 0 29 22" fill="none" xmlns="http://www.w3.org/2000/svg">
<path d="M13.3277 14.1804C13.6816 14.4489 13.6816 14.8842 13.3277 15.1526C12.9738 15.4211 12.3999 15.4211 12.046 15.1526L7.2127 11.486C7.03574 11.3517 6.94727 11.1758 6.94727 10.9998C6.94727 10.9066 6.97172 10.8177 7.01603 10.7367C7.06026 10.6556 7.12581 10.5796 7.2127 10.5137L12.046 6.84703C12.3999 6.57855 12.9738 6.57855 13.3277 6.84703C13.6816 7.11552 13.6816 7.55082 13.3277 7.81931L10.0414 10.3123H21.7493C22.2499 10.3123 22.6556 10.6201 22.6556 10.9998C22.6556 11.3795 22.2499 11.6873 21.7493 11.6873H10.0414L13.3277 14.1804Z" fill="#9E9E9E"/>
<rect x="0.5" y="-0.5" width="28" height="21" rx="9.5" transform="matrix(1 0 0 -1 0 21)" stroke="#9E9E9E"/>
</svg>
