<svg width="30" height="28" viewBox="0 0 30 28" fill="none" xmlns="http://www.w3.org/2000/svg">
<path d="M21.3545 6.59852C21.3545 5.78097 22.0658 5.11822 22.9431 5.11822C23.8205 5.11822 24.5318 5.78097 24.5318 6.59852C24.5318 7.41606 23.8205 8.07882 22.9431 8.07882C22.0658 8.07882 21.3545 7.41606 21.3545 6.59852Z" fill="#FF3F6F"/>
<path fill-rule="evenodd" clip-rule="evenodd" d="M15 6.96859C10.8324 6.96859 7.45398 10.1167 7.45398 14C7.45398 17.8833 10.8324 21.0314 15 21.0314C19.1675 21.0314 22.546 17.8833 22.546 14C22.546 10.1167 19.1675 6.96859 15 6.96859ZM9.83693 14C9.83693 11.343 12.1485 9.18904 15 9.18904C17.8515 9.18904 20.163 11.343 20.163 14C20.163 16.657 17.8515 18.811 15 18.811C12.1485 18.811 9.83693 16.657 9.83693 14Z" fill="#FF3F6F"/>
<path fill-rule="evenodd" clip-rule="evenodd" d="M23.3534 0.430146C17.8463 -0.143382 12.1537 -0.143382 6.64659 0.430145C3.45017 0.76303 0.869707 3.10932 0.493911 6.10326C-0.164637 11.3499 -0.164637 16.6501 0.493911 21.8967C0.869707 24.8907 3.45018 27.237 6.64659 27.5699C12.1537 28.1434 17.8463 28.1434 23.3534 27.5699C26.5498 27.237 29.1303 24.8907 29.5061 21.8967C30.1646 16.6501 30.1646 11.3499 29.5061 6.10326C29.1303 3.10932 26.5498 0.76303 23.3534 0.430146ZM6.91127 2.63685C12.2425 2.08164 17.7575 2.08164 23.0887 2.63685C25.2018 2.85691 26.8944 4.41065 27.1393 6.3612C27.7763 11.4364 27.7763 16.5636 27.1393 21.6388C26.8944 23.5894 25.2018 25.1431 23.0887 25.3631C17.7575 25.9184 12.2425 25.9184 6.91127 25.3631C4.79822 25.1431 3.10556 23.5894 2.86072 21.6388C2.22369 16.5636 2.22369 11.4364 2.86072 6.3612C3.10556 4.41065 4.79822 2.85691 6.91127 2.63685Z" fill="#FF3F6F"/>
</svg>
