<svg width="24" height="24" viewBox="0 0 24 24" fill="none" xmlns="http://www.w3.org/2000/svg">
<path d="M16.9695 8.79673C18.4511 9.85962 20.2661 10.485 22.2265 10.485V6.69927C21.8555 6.69935 21.4854 6.66053 21.1225 6.58335V9.56326C19.1623 9.56326 17.3475 8.93788 15.8655 7.87507V15.6006C15.8655 19.4654 12.7436 22.5981 8.89286 22.5981C7.45605 22.5981 6.12059 22.1622 5.01123 21.4146C6.27739 22.7138 8.04314 23.5198 9.99663 23.5198C13.8476 23.5198 16.9696 20.387 16.9696 16.5221V8.79673H16.9695V8.79673ZM18.3314 4.9774C17.5742 4.14722 17.077 3.07437 16.9695 1.88829V1.40137H15.9233C16.1866 2.90888 17.0848 4.1968 18.3314 4.9774ZM7.44684 18.4489C7.02379 17.8922 6.79517 17.2113 6.7962 16.5111C6.7962 14.7435 8.22411 13.3103 9.98576 13.3103C10.3141 13.3102 10.6404 13.3607 10.9533 13.4603V9.58998C10.5877 9.5397 10.2186 9.51835 9.84976 9.52617V12.5387C9.53665 12.439 9.21014 12.3884 8.88175 12.3887C7.1201 12.3887 5.69227 13.8218 5.69227 15.5896C5.69227 16.8395 6.40599 17.9217 7.44684 18.4489Z" fill="black"/>
<path d="M15.8654 7.87499C17.3474 8.9378 19.1622 9.56318 21.1224 9.56318V6.58327C20.0283 6.34938 19.0596 5.77555 18.3313 4.9774C17.0847 4.19672 16.1866 2.9088 15.9232 1.40137H13.1751V16.522C13.1689 18.2847 11.7435 19.7121 9.98558 19.7121C8.94969 19.7121 8.02941 19.2165 7.44657 18.4489C6.4058 17.9217 5.69208 16.8395 5.69208 15.5897C5.69208 13.822 7.11991 12.3888 8.88157 12.3888C9.21909 12.3888 9.54441 12.4416 9.84957 12.5387V9.52625C6.06646 9.60469 3.02393 12.7068 3.02393 16.5221C3.02393 18.4266 3.78159 20.1531 5.01128 21.4147C6.12064 22.1622 7.4561 22.5982 8.89291 22.5982C12.7437 22.5982 15.8655 19.4653 15.8655 15.6006V7.87499H15.8654Z" fill="black"/>
<path d="M21.1224 6.58347V5.77773C20.1358 5.77923 19.1685 5.50192 18.3313 4.97752C19.0724 5.79172 20.0482 6.35313 21.1224 6.58347ZM15.9232 1.40156C15.8981 1.2575 15.8788 1.11248 15.8654 0.966906V0.47998H12.071V15.6008C12.065 17.3633 10.6396 18.7906 8.88155 18.7906C8.36542 18.7906 7.87811 18.6676 7.44656 18.4492C8.02939 19.2167 8.94967 19.7122 9.98556 19.7122C11.7433 19.7122 13.169 18.285 13.1751 16.5223V1.40156H15.9232ZM9.84972 9.52645V8.66868C9.53267 8.62519 9.21302 8.60336 8.89297 8.60352C5.04182 8.60344 1.91998 11.7364 1.91998 15.6008C1.91998 18.0235 3.14692 20.1587 5.01135 21.4147C3.78165 20.1533 3.02399 18.4266 3.02399 16.5222C3.02399 12.707 6.06645 9.60489 9.84972 9.52645Z" fill="black"/>
</svg>
